<svg id="Layer_1" data-name="Layer 1" xmlns="http://www.w3.org/2000/svg" viewBox="0 0 24 22"><defs><style>.cls-1{fill:#fff;}</style></defs><path class="cls-1" d="M19.5,10A4.5,4.5,0,1,0,24,14.5,4.51,4.51,0,0,0,19.5,10ZM22,15H20v2H19V15H17V14h2V12h1v2h2Zm-6.53,4.59C14.36,20.68,13.2,21.81,12,23,5.57,16.62,0,11.85,0,7.19A6,6,0,0,1,6.28,1,6.51,6.51,0,0,1,12,4.25,6.53,6.53,0,0,1,17.73,1,6,6,0,0,1,24,7.19a7,7,0,0,1-.42,2.26,6.64,6.64,0,0,0-1.77-1A4.56,4.56,0,0,0,22,7.19,4.06,4.06,0,0,0,17.73,3c-3.26,0-5,3.48-5.73,5-.75-1.54-2.48-5-5.72-5A4,4,0,0,0,2,7.19c0,3.44,4.74,7.85,10,13l2.11-2.06A6.51,6.51,0,0,0,15.47,19.59Z" transform="translate(0 -1)"/></svg>